<svg width="27" height="28" viewBox="0 0 27 28" fill="none" xmlns="http://www.w3.org/2000/svg">
<path d="M15.0366 23.6875H11.6953" stroke="white" stroke-width="1.5" stroke-linecap="round" stroke-linejoin="round"/>
<path d="M12.8455 2.40384C10.8616 3.98809 4.2313 10.3251 10.0263 20.3517H16.7088C22.3889 10.3251 15.8526 3.99851 13.8896 2.40384C13.7431 2.28173 13.5584 2.21484 13.3675 2.21484C13.1767 2.21484 12.9919 2.28173 12.8455 2.40384Z" stroke="white" stroke-width="1.5" stroke-linecap="round" stroke-linejoin="round"/>
<path d="M7.71573 11.9512L4.43713 15.8701C4.35454 15.9663 4.29626 16.0808 4.26719 16.2042C4.23812 16.3275 4.23911 16.456 4.27007 16.5788L5.55436 22.3843C5.58535 22.5223 5.651 22.6501 5.74512 22.7558C5.83924 22.8615 5.95875 22.9416 6.0924 22.9885C6.22606 23.0354 6.36947 23.0476 6.50914 23.0239C6.64882 23.0003 6.78018 22.9416 6.89086 22.8533L10.0233 20.3518" stroke="white" stroke-width="1.5" stroke-linecap="round" stroke-linejoin="round"/>
<path d="M18.9519 11.8672L22.2932 15.8695C22.3758 15.9657 22.4341 16.0802 22.4631 16.2036C22.4922 16.3269 22.4912 16.4554 22.4602 16.5782L21.176 22.3837C21.145 22.5216 21.0793 22.6495 20.9852 22.7552C20.8911 22.8609 20.7716 22.941 20.6379 22.9879C20.5043 23.0348 20.3608 23.047 20.2212 23.0233C20.0815 22.9997 19.9501 22.941 19.8395 22.8527L16.707 20.3512" stroke="white" stroke-width="1.5" stroke-linecap="round" stroke-linejoin="round"/>
<path d="M13.3623 11.6016C14.0543 11.6016 14.6153 11.0407 14.6153 10.3487C14.6153 9.65668 14.0543 9.0957 13.3623 9.0957C12.6703 9.0957 12.1094 9.65668 12.1094 10.3487C12.1094 11.0407 12.6703 11.6016 13.3623 11.6016Z" fill="white"/>
</svg>
