<svg width="22" height="23" viewBox="0 0 22 23" fill="none" xmlns="http://www.w3.org/2000/svg">
<path d="M21.0625 0.171875H0.9375C0.453516 0.171875 0.0625 0.576855 0.0625 1.07812V21.9219C0.0625 22.4231 0.453516 22.8281 0.9375 22.8281H21.0625C21.5465 22.8281 21.9375 22.4231 21.9375 21.9219V1.07812C21.9375 0.576855 21.5465 0.171875 21.0625 0.171875ZM18.5359 6.78467H16.7887C15.4188 6.78467 15.1535 7.45869 15.1535 8.4499V10.6334H18.4238L17.9973 14.0517H15.1535V22.8281H11.7438V14.0545H8.8918V10.6334H11.7438V8.11289C11.7438 5.1874 13.4691 3.59297 15.9902 3.59297C17.1988 3.59297 18.2352 3.68643 18.5387 3.72891V6.78467H18.5359Z" fill="white"/>
</svg>
