<svg width="23" height="23" viewBox="0 0 23 23" fill="none" xmlns="http://www.w3.org/2000/svg">
<path d="M21.9219 0.171875H1.07812C0.576855 0.171875 0.171875 0.576855 0.171875 1.07812V21.9219C0.171875 22.4231 0.576855 22.8281 1.07812 22.8281H21.9219C22.4231 22.8281 22.8281 22.4231 22.8281 21.9219V1.07812C22.8281 0.576855 22.4231 0.171875 21.9219 0.171875ZM6.89228 19.4778H3.53066V8.66514H6.89228V19.4778ZM5.21289 7.18682C4.82753 7.18682 4.45082 7.07254 4.1304 6.85845C3.80998 6.64435 3.56024 6.34004 3.41277 5.98401C3.2653 5.62798 3.22671 5.23622 3.30189 4.85826C3.37707 4.4803 3.56264 4.13312 3.83514 3.86063C4.10763 3.58813 4.45481 3.40256 4.83277 3.32738C5.21073 3.2522 5.60249 3.29078 5.95853 3.43826C6.31456 3.58573 6.61886 3.83547 6.83296 4.15589C7.04705 4.4763 7.16133 4.85301 7.16133 5.23838C7.1585 6.31455 6.28623 7.18682 5.21289 7.18682ZM19.4778 19.4778H16.119V14.2188C16.119 12.9642 16.0964 11.3527 14.3717 11.3527C12.6243 11.3527 12.3553 12.7178 12.3553 14.1281V19.4778H8.99932V8.66514H12.2222V10.1435H12.2675C12.7149 9.29385 13.8109 8.39609 15.4479 8.39609C18.852 8.39609 19.4778 10.6362 19.4778 13.5476V19.4778Z" fill="white"/>
</svg>
