<svg width="29" height="29" viewBox="0 0 29 29" fill="none" xmlns="http://www.w3.org/2000/svg">
<path d="M26.2821 7.20187C25.4155 7.5757 24.4725 7.84474 23.5011 7.94952C24.5096 7.35037 25.2648 6.4038 25.6251 5.28741C24.6787 5.85039 23.642 6.24516 22.5608 6.45421C22.109 5.97114 21.5625 5.58631 20.9554 5.32369C20.3483 5.06106 19.6936 4.92628 19.0321 4.92775C16.3559 4.92775 14.2035 7.09708 14.2035 9.75919C14.2035 10.133 14.2488 10.5068 14.3225 10.8665C10.3151 10.6569 6.74111 8.74249 4.36504 5.81134C3.93209 6.55083 3.70521 7.39282 3.70801 8.24972C3.70801 9.92628 4.56045 11.4046 5.86035 12.274C5.0943 12.2439 4.34619 12.0333 3.67686 11.6595V11.719C3.67686 14.0667 5.33643 16.0123 7.54824 16.4598C7.13295 16.5677 6.70573 16.6228 6.27666 16.624C5.9623 16.624 5.66494 16.5929 5.36475 16.5504C5.97646 18.4649 7.75781 19.8554 9.879 19.9007C8.21943 21.2006 6.14072 21.9652 3.88359 21.9652C3.47861 21.9652 3.10479 21.9511 2.7168 21.9058C4.85781 23.2793 7.39814 24.0723 10.1339 24.0723C19.0151 24.0723 23.8749 16.7147 23.8749 10.3284C23.8749 10.1189 23.8749 9.90929 23.8607 9.69972C24.801 9.01154 25.6251 8.15909 26.2821 7.20187Z" fill="white"/>
</svg>
