<svg width="9" height="14" viewBox="0 0 9 14" fill="none" xmlns="http://www.w3.org/2000/svg">
<path d="M3.20759 7.24865L8.30142 2.35245C8.44168 2.21796 8.51884 2.03814 8.51884 1.8464C8.51884 1.65456 8.44168 1.47484 8.30142 1.34014L7.85507 0.911336C7.71504 0.776418 7.52784 0.70215 7.32836 0.70215C7.12887 0.70215 6.9419 0.776418 6.80175 0.911336L0.73673 6.74069C0.596028 6.87582 0.51898 7.05638 0.519533 7.24833C0.51898 7.44113 0.595917 7.62148 0.73673 7.75672L6.7961 13.5804C6.93625 13.7154 7.12322 13.7896 7.32282 13.7896C7.5223 13.7896 7.70928 13.7154 7.84954 13.5804L8.29578 13.1516C8.58615 12.8725 8.58615 12.4182 8.29578 12.1392L3.20759 7.24865Z" fill="white"/>
</svg>
