<svg width="29" height="15" viewBox="0 0 29 15" fill="none" xmlns="http://www.w3.org/2000/svg">
<path d="M0 14.5V12.899C0 12.1135 0.422917 11.4792 1.26875 10.9958C2.11458 10.5125 3.20208 10.2708 4.53125 10.2708C4.79306 10.2708 5.03472 10.2759 5.25625 10.2859C5.47778 10.296 5.69931 10.3212 5.92083 10.3615C5.75972 10.7038 5.63889 11.0512 5.55833 11.4036C5.47778 11.7561 5.4375 12.1337 5.4375 12.5365V14.5H0ZM7.25 14.5V12.5365C7.25 11.2274 7.91962 10.1701 9.25885 9.36458C10.5981 8.55903 12.3451 8.15625 14.5 8.15625C16.675 8.15625 18.4271 8.55903 19.7563 9.36458C21.0854 10.1701 21.75 11.2274 21.75 12.5365V14.5H7.25ZM23.5625 14.5V12.5365C23.5625 12.1337 23.5273 11.7561 23.4568 11.4036C23.3863 11.0512 23.2705 10.7038 23.1094 10.3615C23.3309 10.3212 23.5524 10.296 23.774 10.2859C23.9955 10.2759 24.2271 10.2708 24.4688 10.2708C25.8382 10.2708 26.9358 10.5125 27.7615 10.9958C28.5872 11.4792 29 12.1135 29 12.899V14.5H23.5625ZM14.5 9.96875C12.8889 9.96875 11.5799 10.2104 10.5729 10.6938C9.56597 11.1771 9.0625 11.7913 9.0625 12.5365V12.6875H19.9375V12.5063C19.9375 11.7813 19.4391 11.1771 18.4422 10.6938C17.4453 10.2104 16.1313 9.96875 14.5 9.96875ZM4.53125 9.36458C3.94722 9.36458 3.44878 9.15816 3.03594 8.74531C2.62309 8.33247 2.41667 7.83403 2.41667 7.25C2.41667 6.66597 2.62309 6.16753 3.03594 5.75469C3.44878 5.34184 3.94722 5.13542 4.53125 5.13542C5.11528 5.13542 5.61372 5.34184 6.02656 5.75469C6.43941 6.16753 6.64583 6.66597 6.64583 7.25C6.64583 7.83403 6.43941 8.33247 6.02656 8.74531C5.61372 9.15816 5.11528 9.36458 4.53125 9.36458ZM24.4688 9.36458C23.8847 9.36458 23.3863 9.15816 22.9734 8.74531C22.5606 8.33247 22.3542 7.83403 22.3542 7.25C22.3542 6.66597 22.5606 6.16753 22.9734 5.75469C23.3863 5.34184 23.8847 5.13542 24.4688 5.13542C25.0528 5.13542 25.5512 5.34184 25.9641 5.75469C26.3769 6.16753 26.5833 6.66597 26.5833 7.25C26.5833 7.83403 26.3769 8.33247 25.9641 8.74531C25.5512 9.15816 25.0528 9.36458 24.4688 9.36458ZM14.5 7.25C13.4931 7.25 12.6372 6.89757 11.9323 6.19271C11.2274 5.48785 10.875 4.63194 10.875 3.625C10.875 2.59792 11.2274 1.73698 11.9323 1.04219C12.6372 0.347396 13.4931 0 14.5 0C15.5271 0 16.388 0.347396 17.0828 1.04219C17.7776 1.73698 18.125 2.59792 18.125 3.625C18.125 4.63194 17.7776 5.48785 17.0828 6.19271C16.388 6.89757 15.5271 7.25 14.5 7.25ZM14.5 1.8125C13.9965 1.8125 13.5686 1.98368 13.2161 2.32604C12.8637 2.6684 12.6875 3.10139 12.6875 3.625C12.6875 4.12847 12.8637 4.55642 13.2161 4.90885C13.5686 5.26129 13.9965 5.4375 14.5 5.4375C15.0236 5.4375 15.4566 5.26129 15.799 4.90885C16.1413 4.55642 16.3125 4.12847 16.3125 3.625C16.3125 3.10139 16.1413 2.6684 15.799 2.32604C15.4566 1.98368 15.0236 1.8125 14.5 1.8125Z" fill="url(#paint0_linear_1258_14792)"/>
<defs>
<linearGradient id="paint0_linear_1258_14792" x1="29" y1="-4.99334" x2="21.7022" y2="24.323" gradientUnits="userSpaceOnUse">
<stop stop-color="#1E97F6"/>
<stop offset="1" stop-color="#09DDC9"/>
</linearGradient>
</defs>
</svg>
