<svg width="359" height="445" viewBox="0 0 359 445" fill="none" xmlns="http://www.w3.org/2000/svg">
<path d="M72.2266 219.018L336.245 289.774V347.273L72.2266 276.516V219.018Z" fill="url(#paint0_linear_1310_14321)"/>
<path d="M299.601 279.986L287.864 283.122L280.641 281.221L292.426 278.038L299.601 279.986Z" fill="url(#paint1_linear_1310_14321)"/>
<path d="M287.864 283.122L329.158 328.361L321.983 326.413L280.641 281.222L287.864 283.122Z" fill="url(#paint2_linear_1310_14321)"/>
<path d="M299.601 279.986L329.158 312.347V328.361L287.863 283.122L299.601 279.986Z" fill="url(#paint3_linear_1310_14321)"/>
<path d="M99.6901 226.05L87.9528 229.186L80.7773 227.238L92.5147 224.102L99.6901 226.05Z" fill="url(#paint4_linear_1310_14321)"/>
<path d="M87.9528 229.186L129.247 274.377L122.072 272.476L80.7773 227.238L87.9528 229.186Z" fill="url(#paint5_linear_1310_14321)"/>
<path d="M99.6905 226.05L129.248 258.364V274.378L87.9531 229.187L99.6905 226.05Z" fill="url(#paint6_linear_1310_14321)"/>
<path d="M30.0234 229.994L294.042 300.703V306.786L30.0234 236.029V229.994Z" fill="url(#paint7_linear_1310_14321)"/>
<path d="M294.043 300.704L336.24 289.394V295.477L294.043 306.786V300.704Z" fill="url(#paint8_linear_1310_14321)"/>
<path d="M30.0234 229.995L72.2208 218.686L336.24 289.395L294.042 300.704L30.0234 229.995Z" fill="url(#paint9_linear_1310_14321)"/>
<path d="M300.27 417.413C300.27 415.844 302.55 414.229 307.017 413.041C316.046 410.617 330.682 410.617 339.711 413.041C344.225 414.229 346.459 415.844 346.459 417.413C346.459 418.981 344.178 420.596 339.711 421.784C330.682 424.208 316.046 424.208 307.017 421.784C302.503 420.596 300.27 418.981 300.27 417.413Z" fill="url(#paint10_linear_1310_14321)"/>
<path d="M300.27 381.772C300.27 382.96 301.98 384.196 305.449 385.099C312.339 386.952 323.507 386.952 330.397 385.099C333.866 384.196 335.577 382.96 335.577 381.772V417.46C335.577 418.648 333.866 419.883 330.397 420.786C323.507 422.639 312.339 422.639 305.449 420.786C301.98 419.883 300.27 418.648 300.27 417.46V381.772Z" fill="url(#paint11_linear_1310_14321)"/>
<path d="M300.27 381.773C300.27 380.585 301.98 379.349 305.449 378.447C312.339 376.593 323.507 376.593 330.397 378.447C333.866 379.349 335.577 380.585 335.577 381.773C335.577 382.961 333.866 384.196 330.397 385.099C323.507 386.953 312.339 386.953 305.449 385.099C301.98 384.196 300.27 382.961 300.27 381.773Z" fill="url(#paint12_linear_1310_14321)"/>
<path d="M330.393 383.579C323.503 381.726 312.336 381.726 305.446 383.579C304.543 383.817 303.782 384.102 303.117 384.339C303.782 384.624 304.543 384.862 305.446 385.1C312.336 386.953 323.503 386.953 330.393 385.1C331.296 384.862 332.057 384.577 332.722 384.339C332.057 384.054 331.296 383.817 330.393 383.579Z" fill="url(#paint13_linear_1310_14321)"/>
<path d="M317.895 386.525C317.895 386.525 319.178 360.104 326.543 348.225C335.429 333.874 354.39 342.047 353.724 355.352C353.059 368.658 352.156 377.307 355.055 379.445C355.055 379.445 343.365 370.986 338.233 361.53C333.148 352.074 333.481 342.475 341.037 341.762C341.037 341.762 333.671 338.768 327.446 349.08C321.268 359.392 319.463 386.525 319.463 386.525C319.463 386.525 319.225 386.62 317.895 386.525Z" fill="url(#paint14_linear_1310_14321)"/>
<path d="M317.898 386.525C317.898 386.525 317.613 359.581 297.797 357.823C277.982 356.065 273.325 376.736 276.746 391.229C276.746 391.229 276.984 387 280.643 384.101C284.302 381.203 282.876 377.211 282.971 373.647C283.066 370.083 304.64 378.494 301.884 359.724C301.884 359.724 316.568 362.48 316.283 386.572H317.898V386.525Z" fill="url(#paint15_linear_1310_14321)"/>
<path d="M319.464 386.524C319.464 386.524 319.179 368.182 310.483 343.519C310.483 343.519 316.328 331.449 309.533 325.984C302.738 320.472 291.713 319.522 290.05 312.964C288.387 306.454 278.075 303.27 268.666 306.454C268.666 306.454 268.096 313.297 275.699 317.954C281.211 321.327 284.252 324.654 285.155 333.255C286.296 344.184 297.463 354.639 309.58 344.755C309.58 344.755 317.516 363.24 317.944 386.524H319.464Z" fill="url(#paint16_linear_1310_14321)"/>
<path d="M320.792 329.311C320.792 329.311 317.703 321.423 325.354 316.528C333.005 311.681 339.8 314.77 342.319 311.824C344.837 308.878 355.909 312.964 358.523 304.221C358.523 304.221 359.758 317.241 344.362 323.276C328.966 329.311 320.792 329.311 320.792 329.311Z" fill="url(#paint17_linear_1310_14321)"/>
<path d="M317.895 386.525C317.895 386.525 312.097 344.47 319.463 328.979C326.828 313.487 356.195 322.896 358.524 304.173C358.524 304.173 359.997 315.245 357.764 319.997C355.53 324.702 351.871 322.801 350.541 327.505C349.21 332.21 329.442 343.139 320.746 329.264C320.746 329.264 317.229 335.726 316.326 350.315C315.424 364.903 318.75 386.477 318.75 386.477H317.895V386.525Z" fill="url(#paint18_linear_1310_14321)"/>
<path d="M268.619 306.455C268.619 306.455 268.049 313.297 275.652 317.954C281.164 321.328 284.206 324.655 285.108 333.256C286.249 344.185 297.416 354.639 309.533 344.755C309.533 344.803 296.608 317.242 268.619 306.455Z" fill="url(#paint19_linear_1310_14321)"/>
<path d="M86.2487 39.8694C87.1041 39.6318 88.0544 39.6318 89.0048 39.917L337.865 106.587C342.047 107.727 345.421 113.24 345.421 118.942V265.73C345.421 270.102 343.425 273.286 340.621 274.046C339.766 274.284 338.815 274.284 337.865 273.999L89.0048 207.329C84.8231 206.188 81.4492 200.676 81.4492 194.973V48.1854C81.4492 43.8136 83.3975 40.6298 86.2487 39.8694Z" fill="url(#paint20_linear_1310_14321)"/>
<path d="M178.192 73.3706C178.524 73.2756 178.857 73.2756 179.237 73.3706L271.235 98.0333C272.803 98.461 274.039 100.504 274.039 102.595V247.435C274.039 249.051 273.326 250.239 272.281 250.524C271.948 250.619 271.615 250.619 271.235 250.524L179.237 225.861C177.669 225.433 176.434 223.39 176.434 221.299V76.4119C176.434 74.7962 177.146 73.6082 178.192 73.3706Z" fill="url(#paint21_linear_1310_14321)"/>
<path d="M191.124 170.216C191.267 170.168 191.409 170.168 191.599 170.216L261.263 188.891C261.976 189.081 262.546 190.031 262.546 190.982C262.546 191.742 262.214 192.265 261.738 192.407C261.596 192.455 261.453 192.455 261.263 192.407L191.599 173.732C190.887 173.542 190.316 172.592 190.316 171.641C190.316 170.881 190.649 170.311 191.124 170.216Z" fill="url(#paint22_linear_1310_14321)"/>
<path d="M191.124 180.765C191.267 180.718 191.409 180.718 191.599 180.765L261.263 199.44C261.976 199.63 262.546 200.581 262.546 201.531C262.546 202.292 262.214 202.814 261.738 202.957C261.596 203.004 261.453 203.004 261.263 202.957L191.599 184.282C190.887 184.092 190.316 183.141 190.316 182.191C190.316 181.478 190.649 180.908 191.124 180.765Z" fill="url(#paint23_linear_1310_14321)"/>
<path d="M191.124 191.362C191.267 191.315 191.409 191.315 191.599 191.362L232.751 202.387C233.464 202.577 234.034 203.527 234.034 204.478C234.034 205.238 233.702 205.761 233.227 205.903C233.084 205.951 232.941 205.951 232.751 205.903L191.599 194.879C190.887 194.689 190.316 193.738 190.316 192.788C190.316 192.075 190.649 191.505 191.124 191.362Z" fill="url(#paint24_linear_1310_14321)"/>
<path d="M282.405 100.837C282.595 100.789 282.785 100.789 283.023 100.837L336.577 115.188C337.48 115.425 338.193 116.613 338.193 117.849V160.759C338.193 161.71 337.765 162.375 337.147 162.565C336.957 162.612 336.767 162.612 336.53 162.565L282.975 148.214C282.072 147.976 281.359 146.788 281.359 145.553V102.643C281.359 101.692 281.787 100.979 282.405 100.837Z" fill="url(#paint25_linear_1310_14321)"/>
<path d="M287.822 109.295C287.965 109.247 288.06 109.247 288.202 109.295L303.219 113.334C303.836 113.477 304.311 114.284 304.311 115.14C304.311 115.758 304.026 116.233 303.599 116.375C303.456 116.423 303.361 116.423 303.219 116.375L288.202 112.336C287.585 112.194 287.109 111.386 287.109 110.53C287.109 109.865 287.394 109.39 287.822 109.295Z" fill="url(#paint26_linear_1310_14321)"/>
<path d="M287.822 116.423C287.965 116.375 288.06 116.375 288.202 116.423L295.52 118.371C296.138 118.514 296.613 119.322 296.613 120.177C296.613 120.795 296.328 121.27 295.901 121.412C295.758 121.46 295.663 121.46 295.52 121.412L288.202 119.464C287.585 119.322 287.109 118.514 287.109 117.658C287.109 117.041 287.394 116.565 287.822 116.423Z" fill="url(#paint27_linear_1310_14321)"/>
<path d="M282.405 157.195C282.595 157.148 282.785 157.148 283.023 157.195L336.577 171.546C337.48 171.784 338.193 172.972 338.193 174.207V217.118C338.193 218.068 337.765 218.733 337.147 218.923C336.957 218.971 336.767 218.971 336.53 218.923L282.975 204.572C282.072 204.335 281.359 203.147 281.359 201.911V159.001C281.359 158.051 281.787 157.385 282.405 157.195Z" fill="url(#paint28_linear_1310_14321)"/>
<path d="M95.7969 99.0312L121.457 105.874V141.846L95.7969 135.004V99.0312Z" fill="url(#paint29_linear_1310_14321)"/>
<path d="M95.4157 98.3662L121.409 105.352C121.409 105.352 122.739 127.116 109.957 134.244L83.4883 127.543C83.5358 127.543 97.459 118.182 95.4157 98.3662Z" fill="white"/>
<path d="M99.6445 110.009L115.801 114.476" stroke="url(#paint30_linear_1310_14321)" stroke-width="3" stroke-miterlimit="10" stroke-linecap="round" stroke-linejoin="round"/>
<path d="M97.4141 115.949L113.571 120.416" stroke="url(#paint31_linear_1310_14321)" stroke-width="3" stroke-miterlimit="10" stroke-linecap="round" stroke-linejoin="round"/>
<path d="M94.9414 121.366L105.491 124.407" stroke="url(#paint32_linear_1310_14321)" stroke-width="3" stroke-miterlimit="10" stroke-linecap="round" stroke-linejoin="round"/>
<path d="M256.267 107.204C256.505 107.157 256.743 107.157 257.028 107.204L260.544 108.154C261.637 108.44 262.588 109.913 262.588 111.433V171.973C262.588 173.161 262.065 173.969 261.305 174.207C261.067 174.254 260.829 174.254 260.544 174.207L257.028 173.256C255.935 172.971 254.984 171.498 254.984 169.977V109.438C254.984 108.25 255.507 107.394 256.267 107.204Z" fill="url(#paint33_linear_1310_14321)"/>
<path d="M240.112 114.522C240.302 114.475 240.54 114.475 240.778 114.522L244.674 115.568C245.672 115.853 246.527 117.184 246.527 118.562V167.934C246.527 168.98 246.052 169.788 245.387 169.93C245.197 169.978 244.959 169.978 244.722 169.93L240.825 168.885C239.827 168.6 238.972 167.269 238.972 165.891V116.566C238.924 115.473 239.447 114.713 240.112 114.522Z" fill="url(#paint34_linear_1310_14321)"/>
<path d="M223.817 131.392C223.959 131.345 224.15 131.345 224.34 131.392L229.044 132.675C229.852 132.865 230.47 133.911 230.47 135.004V164.228C230.47 165.036 230.09 165.654 229.567 165.796C229.424 165.844 229.234 165.844 229.044 165.796L224.34 164.513C223.532 164.323 222.914 163.278 222.914 162.185V132.96C222.914 132.152 223.294 131.535 223.817 131.392Z" fill="url(#paint35_linear_1310_14321)"/>
<path d="M207.846 119.179C208.036 119.132 208.226 119.132 208.416 119.179L212.788 120.367C213.69 120.605 214.403 121.745 214.403 122.981V159.666C214.403 160.569 213.976 161.282 213.405 161.424C213.215 161.472 213.025 161.472 212.835 161.424L208.463 160.236C207.56 159.999 206.848 158.858 206.848 157.623V120.89C206.848 120.035 207.275 119.322 207.846 119.179Z" fill="url(#paint36_linear_1310_14321)"/>
<path d="M191.597 129.966C191.739 129.918 191.882 129.918 192.072 129.966L197.109 131.296C197.822 131.486 198.392 132.389 198.392 133.34V155.769C198.392 156.482 198.06 157.052 197.584 157.147C197.442 157.195 197.299 157.195 197.109 157.147L192.072 155.816C191.359 155.626 190.789 154.724 190.789 153.773V131.344C190.789 130.631 191.122 130.108 191.597 129.966Z" fill="url(#paint37_linear_1310_14321)"/>
<path d="M322.835 149.782C326.969 148.689 329.868 143.984 329.868 137.569C329.868 129.206 324.879 121.08 318.748 119.417C317.323 119.037 315.945 119.037 314.662 119.369C310.528 120.462 307.629 125.167 307.629 131.582C307.629 139.945 312.618 148.071 318.748 149.734C320.174 150.162 321.552 150.115 322.835 149.782Z" stroke="url(#paint38_linear_1310_14321)" stroke-width="6" stroke-miterlimit="10"/>
<path d="M329.874 137.569C329.874 129.206 324.885 121.08 318.755 119.417C317.329 119.037 315.951 119.037 314.668 119.369" stroke="url(#paint39_linear_1310_14321)" stroke-width="6" stroke-miterlimit="10" stroke-linecap="round" stroke-linejoin="round"/>
<path d="M306.021 174.015C311.295 172.59 317.283 177.769 319.374 185.515C321.465 193.261 318.851 200.721 313.576 202.147C308.302 203.573 302.314 198.393 300.223 190.647C298.132 182.902 300.698 175.441 306.021 174.015Z" fill="url(#paint40_linear_1310_14321)"/>
<path d="M304.168 187.986L307.97 192.548L314.432 185.278" stroke="white" stroke-width="4" stroke-miterlimit="10" stroke-linecap="round" stroke-linejoin="round"/>
<path d="M120.17 86.7708C122.322 86.7708 124.067 85.0262 124.067 82.8741C124.067 80.7221 122.322 78.9775 120.17 78.9775C118.018 78.9775 116.273 80.7221 116.273 82.8741C116.273 85.0262 118.018 86.7708 120.17 86.7708Z" fill="url(#paint41_linear_1310_14321)"/>
<path d="M139.127 75.4135L123.731 64.1514H116.556L101.207 75.4135C100.256 76.0313 99.7812 76.6965 99.7812 77.4093C99.7812 80.4506 108.905 82.8741 120.167 82.8741C131.429 82.8741 140.553 80.4031 140.553 77.4093C140.553 76.7441 140.03 76.0313 139.127 75.4135Z" fill="url(#paint42_linear_1310_14321)"/>
<path d="M120.166 65.1972C122.161 65.1972 123.778 64.7717 123.778 64.2468C123.778 63.7219 122.161 63.2964 120.166 63.2964C118.172 63.2964 116.555 63.7219 116.555 64.2468C116.555 64.7717 118.172 65.1972 120.166 65.1972Z" fill="url(#paint43_linear_1310_14321)"/>
<path d="M120.168 64.4366C119.55 64.4366 119.027 63.9139 119.027 63.2961V1.14047C119.027 0.522716 119.55 0 120.168 0C120.786 0 121.308 0.522716 121.308 1.14047V63.2486C121.308 63.9139 120.786 64.4366 120.168 64.4366Z" fill="url(#paint44_linear_1310_14321)"/>
<path d="M312.998 86.7708C315.15 86.7708 316.895 85.0262 316.895 82.8741C316.895 80.7221 315.15 78.9775 312.998 78.9775C310.846 78.9775 309.102 80.7221 309.102 82.8741C309.102 85.0262 310.846 86.7708 312.998 86.7708Z" fill="url(#paint45_linear_1310_14321)"/>
<path d="M331.913 75.4135L316.564 64.1514H309.388L293.992 75.4135C293.042 76.0313 292.566 76.6965 292.566 77.4093C292.566 80.4506 301.69 82.8741 312.952 82.8741C324.214 82.8741 333.338 80.4031 333.338 77.4093C333.386 76.7441 332.863 76.0313 331.913 75.4135Z" fill="url(#paint46_linear_1310_14321)"/>
<path d="M312.998 65.1967C314.993 65.1967 316.61 64.7712 316.61 64.2463C316.61 63.7214 314.993 63.2959 312.998 63.2959C311.004 63.2959 309.387 63.7214 309.387 64.2463C309.387 64.7712 311.004 65.1967 312.998 65.1967Z" fill="url(#paint47_linear_1310_14321)"/>
<path d="M313.004 64.4366C312.386 64.4366 311.863 63.9139 311.863 63.2961V1.14047C311.863 0.522716 312.386 0 313.004 0C313.622 0 314.144 0.522716 314.144 1.14047V63.2486C314.144 63.9139 313.622 64.4366 313.004 64.4366Z" fill="url(#paint48_linear_1310_14321)"/>
<path d="M192.685 265.017C194.586 265.588 203.424 268.059 207.986 268.629C211.218 269.056 224.286 274.711 248.378 281.982C260.258 285.546 264.202 268.961 251.182 266.348C233.694 262.831 214.069 259.457 212.168 258.317C210.267 257.177 208.414 254.563 207.321 253.185C206.276 251.902 205.515 250.714 204.565 250.714C203.615 250.761 204.327 252.947 204.898 254.135C205.468 255.323 206.133 256.986 204.898 256.606C204.898 256.606 197.057 254.135 194.918 253.47C192.78 252.805 192.21 255.133 194.206 255.846C196.154 256.559 202.189 258.84 202.189 258.84C202.189 258.84 193.16 256.274 191.212 255.751C189.264 255.228 188.646 257.747 190.832 258.46C193.018 259.172 201.191 261.501 201.191 261.501C201.191 261.501 194.871 259.98 191.972 259.362C189.834 258.887 189.216 261.121 191.64 261.881C194.633 262.784 200.621 264.447 200.621 264.447C200.621 264.447 195.441 263.354 193.113 262.974C191.592 262.736 190.784 264.447 192.685 265.017Z" fill="url(#paint49_linear_1310_14321)"/>
<path d="M239.199 261.216C239.199 261.216 240.007 265.778 241.955 275.33C244.141 285.974 262.104 284.881 259.443 271.148C256.591 256.559 256.306 255.324 256.306 255.324L239.199 261.216Z" fill="url(#paint50_linear_1310_14321)"/>
<path d="M238.724 264.447C237.917 264.257 237.299 263.544 237.156 262.689C236.586 258.555 234.828 245.772 234.353 237.599C233.64 226.051 251.697 222.868 255.214 236.553C257.542 245.535 258.35 255.656 258.54 259.22C258.588 260.028 258.16 260.836 257.447 261.216C254.501 262.784 246.47 266.443 238.724 264.447Z" fill="url(#paint51_linear_1310_14321)"/>
<path d="M176.43 233.75L211.784 243.206L215.728 255.941L180.374 246.485L176.43 233.75Z" fill="url(#paint52_linear_1310_14321)"/>
<path d="M141.078 243.205L176.433 233.749L211.787 243.205L176.433 252.709L141.078 243.205Z" fill="url(#paint53_linear_1310_14321)"/>
<path d="M211.784 243.206L176.43 233.75V252.71L211.784 243.206Z" fill="url(#paint54_linear_1310_14321)"/>
<path d="M160.842 224.958C161.08 224.911 161.317 224.911 161.603 224.958L184.982 231.231C186.123 231.516 187.073 233.037 187.073 234.605V270.672C187.073 271.86 186.503 272.763 185.743 272.953C185.505 273.001 185.267 273.001 184.982 272.953L161.603 266.681C160.462 266.396 159.512 264.875 159.512 263.307V227.239C159.559 226.051 160.082 225.196 160.842 224.958Z" fill="url(#paint55_linear_1310_14321)"/>
<path d="M156.659 226.146C156.896 226.099 157.134 226.099 157.419 226.146L180.799 232.419C181.939 232.704 182.889 234.225 182.889 235.793V271.86C182.889 273.048 182.319 273.951 181.559 274.141C181.321 274.189 181.084 274.189 180.799 274.141L157.419 267.869C156.279 267.584 155.328 266.063 155.328 264.495V228.427C155.328 227.239 155.898 226.384 156.659 226.146Z" fill="url(#paint56_linear_1310_14321)"/>
<path d="M152.479 232.086C152.717 232.039 152.954 232.039 153.239 232.086L176.619 238.359C177.759 238.644 178.71 240.165 178.71 241.733V277.8C178.71 278.988 178.14 279.891 177.379 280.081C177.142 280.129 176.904 280.129 176.619 280.081L153.239 273.809C152.099 273.524 151.148 272.003 151.148 270.435V234.367C151.148 233.179 151.671 232.324 152.479 232.086Z" fill="url(#paint57_linear_1310_14321)"/>
<path d="M141.074 243.206L176.429 252.71V289.015L141.074 279.511V243.206Z" fill="url(#paint58_linear_1310_14321)"/>
<path d="M141.077 243.206L176.432 252.71L172.487 265.445L137.133 255.941L141.077 243.206Z" fill="url(#paint59_linear_1310_14321)"/>
<path d="M176.43 252.71L211.784 243.206V279.511L176.43 289.015V252.71Z" fill="url(#paint60_linear_1310_14321)"/>
<path d="M235.982 226.383C235.982 226.383 234.176 219.873 235.982 215.311C237.312 211.89 245.628 204.477 240.876 193.547C237.027 184.661 218.97 181.192 214.883 192.169C211.271 201.816 210.749 203.812 209.418 205.998C208.42 207.613 209.941 207.993 210.749 208.183C210.701 209.324 210.273 212.983 212.127 215.501C214.693 219.065 219.065 217.782 216.594 225.1L235.982 226.383Z" fill="url(#paint61_linear_1310_14321)"/>
<path d="M217.733 193.738C217.733 193.738 211.223 192.265 212.221 186.61C213.362 180.005 221.868 177.914 233.082 183.046C240.115 186.277 242.729 190.459 241.826 195.401C241.826 195.401 245.295 199.583 242.159 208.564C239.878 215.217 234.983 219.589 226.525 217.403C219.444 215.55 219.777 209.467 219.777 209.467C219.777 209.467 225.242 208.849 225.099 204.24C224.956 199.963 219.777 200.058 219.254 204.382C219.254 204.382 219.539 203.194 216.926 200.011C215.548 198.443 215.833 195.211 217.733 193.738Z" fill="url(#paint62_linear_1310_14321)"/>
<path d="M294.047 439.889H241.205L232.129 430.147H294.047V439.889Z" fill="url(#paint63_linear_1310_14321)"/>
<path d="M254.649 444.356H201.759L192.73 435.66H254.649V444.356Z" fill="url(#paint64_linear_1310_14321)"/>
<path d="M245.948 412.613C245.948 412.613 244.808 425.728 247.421 430.29C250.415 435.565 245.996 440.412 239.818 439.842C234.781 439.366 229.934 437.18 220.81 434.947C211.687 432.714 210.166 426.489 213.872 424.588C217.104 422.925 232.928 427.439 233.546 415.036L245.948 412.613Z" fill="url(#paint65_linear_1310_14321)"/>
<path d="M254.552 293.101C254.552 293.101 255.123 299.184 253.032 315.673C250.989 331.639 246.712 341.429 247.234 344.945C247.757 348.461 248.422 370.273 247.615 392.94C246.949 411.235 246.332 417.412 246.332 417.412C242.387 419.931 237.303 419.836 233.454 417.222L233.169 417.032C233.169 417.032 225.185 356.35 224.948 350.885C224.71 345.468 223.902 294.907 223.902 294.907L254.552 293.101Z" fill="url(#paint66_linear_1310_14321)"/>
<path d="M247.282 435.09C245.333 438.083 238.538 438.226 233.786 435.993C228.987 433.759 221.146 433.141 216.014 430.29C212.687 428.437 212.545 426.489 212.83 425.348C210.596 427.819 212.687 432.951 220.813 434.9C229.937 437.133 234.736 439.319 239.821 439.794C245.571 440.317 249.8 436.183 247.947 431.383C248.137 432.571 248.042 433.902 247.282 435.09Z" fill="url(#paint67_linear_1310_14321)"/>
<path d="M208.651 422.925C208.651 422.925 207.843 429.91 208.936 435.803C210.171 442.455 207.51 444.594 204.279 444.641C194.395 444.831 181.137 443.216 173.724 441.41C169.162 440.269 170.255 433.712 177.573 433.046C192.304 431.716 195.393 422.212 195.393 422.212L208.651 422.925Z" fill="url(#paint68_linear_1310_14321)"/>
<path d="M239.197 289.87L205.505 292.151C205.505 292.151 202.179 312.536 199.85 324.179C197.854 334.253 197.664 345.135 197.664 351.408C197.664 357.68 195.336 422.925 195.336 422.925C204.032 426.251 208.641 422.925 208.641 422.925C208.641 422.925 220.521 378.399 221.377 365.331C222.232 352.263 222.232 347.844 223.61 345.42C226.081 341.286 236.108 309.495 239.197 289.87Z" fill="url(#paint69_linear_1310_14321)"/>
<path d="M209.169 439.936C207.126 444.641 179.279 440.697 175.858 439.841C174.29 439.461 170.821 438.321 171.201 436.895C170.488 438.796 171.344 440.792 173.672 441.362C181.085 443.215 194.391 444.783 204.227 444.593C206.698 444.593 208.789 443.358 209.169 439.936Z" fill="url(#paint70_linear_1310_14321)"/>
<path d="M210.121 229.14C210.121 229.14 210.976 227.572 214.113 224.815C218.532 220.871 231.885 219.873 237.017 222.392C240.058 223.865 243.195 228.237 243.195 228.237L210.121 229.14Z" fill="url(#paint71_linear_1310_14321)"/>
<path d="M243.483 225.908C231.461 222.534 221.292 224.055 213.546 226.954C203.187 230.803 197.199 237.075 197.199 237.075C197.199 237.075 204.85 250.428 206.656 257.889C208.271 264.589 204.232 293.671 203.757 298.946C203.662 299.231 203.614 299.564 203.662 299.849C203.899 301.655 206.751 303.128 212.12 303.793C222.86 305.124 239.682 302.748 249.661 298.518C254.65 296.38 256.979 294.242 256.741 292.388C256.741 292.246 256.694 292.103 256.599 291.961C256.076 290.107 254.128 282.884 253.272 277.657C250.516 260.978 252.987 256.654 254.46 242.968C255.553 232.419 251.182 228.094 243.483 225.908Z" fill="url(#paint72_linear_1310_14321)"/>
<path d="M191.597 266.3C191.597 266.3 190.647 270.815 188.984 280.414C187.131 291.106 204.238 296.713 206.756 282.932C209.465 268.296 209.655 267.061 209.655 267.061L191.597 266.3Z" fill="url(#paint73_linear_1310_14321)"/>
<path d="M191.694 268.771C190.981 268.296 190.601 267.44 190.791 266.633C191.551 262.498 192.787 249.193 194.83 241.305C197.776 230.138 214.313 231.373 213.41 245.439C212.792 254.705 210.416 266.443 209.514 269.911C209.324 270.719 208.658 271.337 207.85 271.48C204.477 271.955 198.394 273.095 191.694 268.771Z" fill="url(#paint74_linear_1310_14321)"/>
<path d="M139.134 275.566C141.035 276.089 149.969 278.275 154.531 278.75C157.762 279.083 171.02 284.357 195.302 290.915C207.277 294.146 210.746 277.419 197.631 275.186C180.049 272.192 160.375 269.389 158.38 268.296C156.431 267.203 154.531 264.637 153.39 263.306C152.345 262.023 151.537 260.883 150.586 260.93C149.636 260.978 150.396 263.164 151.014 264.352C151.584 265.54 152.345 267.155 151.062 266.823C151.062 266.823 143.126 264.589 140.988 263.971C138.849 263.401 138.374 265.73 140.322 266.395C142.318 267.06 148.401 269.151 148.401 269.151C148.401 269.151 139.277 266.823 137.328 266.347C135.38 265.872 134.81 268.438 137.043 269.056C139.277 269.674 147.498 271.765 147.498 271.765C147.498 271.765 141.13 270.434 138.231 269.911C136.045 269.531 135.523 271.765 137.994 272.43C141.035 273.238 147.07 274.711 147.07 274.711C147.07 274.711 141.89 273.76 139.562 273.475C137.946 273.333 137.186 275.043 139.134 275.566Z" fill="url(#paint75_linear_1310_14321)"/>
<path d="M62 407.005C62 404.724 65.2313 402.491 71.694 400.733C84.6193 397.264 105.528 397.264 118.406 400.733C124.868 402.443 128.1 404.724 128.1 407.005C128.1 409.286 124.868 411.52 118.406 413.278C105.48 416.747 84.5718 416.747 71.694 413.278C65.2313 411.567 62 409.286 62 407.005Z" fill="url(#paint76_linear_1310_14321)"/>
<path d="M95.0273 362.764V412.469" stroke="url(#paint77_linear_1310_14321)" stroke-width="10" stroke-miterlimit="10" stroke-linecap="round" stroke-linejoin="round"/>
<path d="M74.0223 355.826L65.4688 405.532" stroke="url(#paint78_linear_1310_14321)" stroke-width="10" stroke-miterlimit="10" stroke-linecap="round" stroke-linejoin="round"/>
<path d="M116.078 355.826L124.632 405.532" stroke="url(#paint79_linear_1310_14321)" stroke-width="10" stroke-miterlimit="10" stroke-linecap="round" stroke-linejoin="round"/>
<path d="M61.332 355.826C61.332 358.155 64.6109 360.436 71.2161 362.194C84.379 365.71 105.715 365.71 118.878 362.194C125.483 360.436 128.762 358.107 128.762 355.826V363.667C128.762 365.995 125.483 368.276 118.878 370.035C105.715 373.551 84.379 373.551 71.2161 370.035C64.6109 368.276 61.332 365.948 61.332 363.667V355.826Z" fill="url(#paint80_linear_1310_14321)"/>
<path d="M61.332 355.826C61.332 353.497 64.6109 351.216 71.2161 349.458C84.379 345.942 105.715 345.942 118.878 349.458C125.483 351.216 128.762 353.545 128.762 355.826C128.762 358.154 125.483 360.435 118.878 362.193C105.715 365.71 84.379 365.71 71.2161 362.193C64.6109 360.435 61.332 358.154 61.332 355.826Z" fill="url(#paint81_linear_1310_14321)"/>
<path d="M20.2339 309.923C20.2339 309.923 11.9655 324.511 5.07518 329.929C1.13105 333.065 2.36656 335.346 8.25899 340.003C14.1039 344.707 20.7091 350.172 23.2277 350.552C25.7462 350.932 25.6036 349.839 22.2298 345.705C15.6245 337.484 19.3786 332.542 32.3039 316.813L20.2339 309.923Z" fill="url(#paint82_linear_1310_14321)"/>
<path d="M54.1632 194.45C54.1632 194.45 44.2791 208.849 44.9444 229.567C45.7522 254.753 54.1157 261.595 47.8431 268.676C41.618 275.756 27.2671 295.002 19.0938 311.253C19.0938 311.253 25.7465 312.299 30.546 319.712C30.546 319.712 62.7167 285.213 66.6133 279.463C70.51 273.713 72.4583 266.395 72.5533 251.474C72.6483 236.553 74.4066 201.293 74.4066 201.293L54.1632 194.45Z" fill="url(#paint83_linear_1310_14321)"/>
<path d="M0.324219 333.967C0.324219 333.967 3.1754 330.023 7.35712 328.027C7.35712 328.027 10.0182 328.217 13.202 331.686C17.0511 335.916 18.9994 334.11 20.4725 333.017C21.9932 331.876 21.5655 338.767 21.518 339.907C21.4229 342.093 22.706 344.707 24.9869 347.843C27.2203 351.027 27.648 352.738 26.5075 354.163C25.367 355.589 20.2825 353.403 17.5738 351.264C14.8652 349.174 0.324219 333.967 0.324219 333.967Z" fill="url(#paint84_linear_1310_14321)"/>
<path d="M4.17336 334.823C1.22715 332.019 -1.57651 334.063 1.03707 337.009C3.65065 339.907 14.6277 348.889 14.6277 348.889C21.9457 355.399 26.5076 355.114 24.1791 353.451C18.5718 349.554 4.17336 334.823 4.17336 334.823Z" fill="url(#paint85_linear_1310_14321)"/>
<path d="M69.0382 141.038C69.0382 141.038 70.3688 134.956 69.7986 132.865C69.1808 130.774 63.3834 120.272 66.9474 112.574C70.5113 104.876 80.4905 104.068 86.0027 108.107C91.515 112.146 91.6101 120.557 90.6597 123.361C89.9944 125.404 91.0873 128.208 91.7526 130.631C92.1803 132.152 90.3745 131.487 90.232 132.247C89.8043 135.003 89.044 138.045 87.856 138.71C86.668 139.375 84.4821 138.235 84.4821 138.235L84.102 143.842L69.0382 141.038Z" fill="url(#paint86_linear_1310_14321)"/>
<path d="M62.5752 117.754C64.381 106.872 70.7961 107.68 70.7961 107.68C70.7961 107.68 76.0708 101.882 85.4322 105.256C91.182 107.347 93.8906 113.477 92.4651 117.279C91.0395 121.08 87.2379 120.653 86.0974 125.262C84.957 129.871 89.0436 130.061 88.4734 133.435C88.4734 133.435 88.806 131.962 86.7152 131.487C84.6243 131.012 82.8186 128.873 83.0562 125.167C83.0562 125.167 79.2071 123.314 77.9241 126.925C76.9261 129.634 79.4447 131.249 80.9653 132.295C82.3434 133.245 81.5831 137.807 77.6389 138.71C68.4677 140.706 60.2468 131.535 62.5752 117.754Z" fill="url(#paint87_linear_1310_14321)"/>
<path d="M82.1016 324.892C82.1016 324.892 84.3825 342.047 83.8123 349.887C83.4796 354.924 85.3329 355.732 92.841 355.4C100.349 355.067 108.903 354.877 111.041 353.546C113.227 352.168 108.998 350.315 103.675 349.745C95.0269 348.842 96.3099 342.427 95.6922 322.088L82.1016 324.892Z" fill="url(#paint88_linear_1310_14321)"/>
<path d="M82.3844 330.642C82.3844 330.642 77.9651 312.774 79.6758 288.539C80.5312 276.422 77.5849 271.575 71.6925 258.602C65.3724 244.631 61.2382 219.066 67.0356 199.44L93.9792 204.049C93.9792 204.049 99.5865 231.326 99.0638 250.143C98.4936 270.814 96.4027 330.689 96.4027 330.689C96.4027 330.689 90.8429 333.493 82.3844 330.642Z" fill="url(#paint89_linear_1310_14321)"/>
<path d="M82.3391 355.685C82.3391 355.685 82.6242 350.98 83.9073 347.416C83.9073 347.416 87.3287 349.317 91.1302 347.987C95.5496 346.418 95.2169 341.619 96.5475 342.474C97.6879 343.235 96.69 346.466 102.915 348.319C112.657 351.17 114.985 352.168 114.51 354.829C113.94 358.061 92.6984 359.296 87.7088 359.296C82.7193 359.296 82.2916 356.873 82.3391 355.685Z" fill="url(#paint90_linear_1310_14321)"/>
<path d="M114.32 353.214C114.32 353.261 114.32 353.309 114.273 353.404C113.702 356.635 93.554 357.538 88.5644 357.538C85.143 357.538 82.767 356.683 82.3394 355.59C82.3394 355.637 82.3394 355.685 82.3394 355.685C82.2918 356.825 82.672 359.296 87.7091 359.296C92.6986 359.296 113.94 358.061 114.51 354.83C114.605 354.212 114.558 353.689 114.32 353.214Z" fill="url(#paint91_linear_1310_14321)"/>
<path d="M96.1679 211.32C94.7423 214.314 59.8154 217.973 47.793 204.81C47.793 204.81 54.4932 189.271 52.3548 172.354C49.8363 152.348 51.8797 146.646 57.1543 144.127C62.429 141.609 67.5136 144.65 68.9867 137.712L84.8107 140.706C84.8107 140.706 83.8603 143.557 88.5173 144.982C93.1742 146.408 102.203 148.024 102.013 156.007C101.728 166.129 103.486 171.118 102.013 175.538C100.065 181.43 96.5956 183.046 95.2175 196.256C94.3622 204.429 96.1679 211.32 96.1679 211.32Z" fill="url(#paint92_linear_1310_14321)"/>
<path d="M66.7117 129.022C69.2532 128.101 70.4582 124.995 69.4031 122.083C68.348 119.171 65.4324 117.557 62.8909 118.478C60.3494 119.399 59.1444 122.506 60.1995 125.418C61.2546 128.33 64.1702 129.943 66.7117 129.022Z" fill="white"/>
<path d="M63.9029 119.654C59.5786 119.369 49.1243 121.127 50.93 131.677C52.7358 142.226 55.8245 143.984 50.1222 148.546C44.4198 153.108 44.895 160.854 53.4961 162.66C64.093 164.845 73.977 160.901 74.4522 147.643C74.7849 138.33 69.3676 134.338 67.2292 131.297C65.0909 128.255 67.2768 128.16 68.0371 124.834C68.8924 121.127 65.4235 119.749 63.9029 119.654Z" fill="url(#paint93_linear_1310_14321)"/>
<path d="M131.805 138.947L150.765 144.032V170.595L131.805 165.511V138.947Z" fill="url(#paint94_linear_1310_14321)"/>
<path d="M124.44 133.055L143.637 138.187C143.637 138.187 144.635 154.249 135.179 159.524L115.648 154.582C115.648 154.582 125.96 147.691 124.44 133.055Z" fill="white"/>
<path d="M127.574 141.608L139.502 144.935" stroke="url(#paint95_linear_1310_14321)" stroke-width="3" stroke-miterlimit="10" stroke-linecap="round" stroke-linejoin="round"/>
<path d="M125.914 146.028L137.841 149.307" stroke="url(#paint96_linear_1310_14321)" stroke-width="3" stroke-miterlimit="10" stroke-linecap="round" stroke-linejoin="round"/>
<path d="M124.109 150.02L131.903 152.253" stroke="url(#paint97_linear_1310_14321)" stroke-width="3" stroke-miterlimit="10" stroke-linecap="round" stroke-linejoin="round"/>
<path d="M111.043 183.236C111.043 183.236 131.524 162.375 134.708 158.193C137.892 154.011 137.797 152.253 137.797 150.4C137.749 148.499 138.367 147.169 138.224 145.315C138.082 143.462 139.935 143.795 140.363 145.41C140.743 147.026 140.6 148.879 141.075 148.879C141.503 148.879 144.164 146.123 144.164 146.123C144.164 146.123 143.546 143.082 143.309 141.941C143.071 140.801 144.972 139.993 145.685 141.846C146.398 143.7 146.968 145.933 146.92 146.693C146.873 147.454 146.207 148.309 146.207 148.309C146.207 148.309 147.823 148.594 147.443 150.685C147.443 150.685 148.631 151.683 147.776 153.346C147.776 153.346 149.059 154.582 147.823 156.387C146.588 158.193 142.311 160.522 140.41 163.278C138.509 166.081 126.962 185.089 122.875 191.267L111.043 183.236Z" fill="url(#paint98_linear_1310_14321)"/>
<path d="M121.451 171.451C121.451 171.451 108.526 185.374 104.915 189.936C98.547 198.015 110.332 209.467 118.933 196.922C127.534 184.377 131.811 177.581 131.811 177.581C131.811 177.581 128.009 171.641 121.451 171.451Z" fill="url(#paint99_linear_1310_14321)"/>
<path d="M118.128 189.175C113.424 177.533 105.108 156.53 101.354 151.16C97.5995 145.79 80.1598 147.976 86.2898 164.798C92.4199 181.62 97.8371 188.843 101.591 196.826C106.771 207.708 123.213 201.768 118.128 189.175Z" fill="url(#paint100_linear_1310_14321)"/>
<defs>
<linearGradient id="paint0_linear_1310_14321" x1="198.879" y1="306.359" x2="216.088" y2="231.954" gradientUnits="userSpaceOnUse">
<stop stop-color="white"/>
<stop offset="1" stop-color="#AEBDDF"/>
</linearGradient>
<linearGradient id="paint1_linear_1310_14321" x1="246.069" y1="240.788" x2="311.493" y2="299.909" gradientUnits="userSpaceOnUse">
<stop stop-color="white"/>
<stop offset="1" stop-color="#AEBDDF"/>
</linearGradient>
<linearGradient id="paint2_linear_1310_14321" x1="286.296" y1="328.083" x2="307.077" y2="302.055" gradientUnits="userSpaceOnUse">
<stop stop-color="white"/>
<stop offset="1" stop-color="#AEBDDF"/>
</linearGradient>
<linearGradient id="paint3_linear_1310_14321" x1="308.494" y1="357.859" x2="308.494" y2="271.324" gradientUnits="userSpaceOnUse">
<stop stop-color="white"/>
<stop offset="1" stop-color="#AEBDDF"/>
</linearGradient>
<linearGradient id="paint4_linear_1310_14321" x1="46.1823" y1="186.83" x2="111.607" y2="245.951" gradientUnits="userSpaceOnUse">
<stop stop-color="white"/>
<stop offset="1" stop-color="#AEBDDF"/>
</linearGradient>
<linearGradient id="paint5_linear_1310_14321" x1="86.4097" y1="274.124" x2="107.19" y2="248.096" gradientUnits="userSpaceOnUse">
<stop stop-color="white"/>
<stop offset="1" stop-color="#AEBDDF"/>
</linearGradient>
<linearGradient id="paint6_linear_1310_14321" x1="108.608" y1="295.874" x2="108.608" y2="228.873" gradientUnits="userSpaceOnUse">
<stop stop-color="white"/>
<stop offset="1" stop-color="#AEBDDF"/>
</linearGradient>
<linearGradient id="paint7_linear_1310_14321" x1="162.023" y1="178.385" x2="162.023" y2="278.051" gradientUnits="userSpaceOnUse">
<stop stop-color="white"/>
<stop offset="1" stop-color="#AEBDDF"/>
</linearGradient>
<linearGradient id="paint8_linear_1310_14321" x1="357.027" y1="298.102" x2="251.584" y2="298.102" gradientUnits="userSpaceOnUse">
<stop stop-color="white"/>
<stop offset="1" stop-color="#AEBDDF"/>
</linearGradient>
<linearGradient id="paint9_linear_1310_14321" x1="183.126" y1="155.294" x2="183.126" y2="368.579" gradientUnits="userSpaceOnUse">
<stop stop-color="white"/>
<stop offset="1" stop-color="#AEBDDF"/>
</linearGradient>
<linearGradient id="paint10_linear_1310_14321" x1="342.954" y1="437.914" x2="326.573" y2="420.759" gradientUnits="userSpaceOnUse">
<stop stop-color="white"/>
<stop offset="1" stop-color="#AEBDDF"/>
</linearGradient>
<linearGradient id="paint11_linear_1310_14321" x1="296.449" y1="402.391" x2="355.695" y2="400.523" gradientUnits="userSpaceOnUse">
<stop/>
<stop offset="1" stop-color="#AEBDDF"/>
</linearGradient>
<linearGradient id="paint12_linear_1310_14321" x1="331.979" y1="381.775" x2="290.209" y2="381.775" gradientUnits="userSpaceOnUse">
<stop stop-color="#ACBDDE"/>
<stop offset="1" stop-color="#2E405C"/>
</linearGradient>
<linearGradient id="paint13_linear_1310_14321" x1="317.917" y1="365.324" x2="317.917" y2="386.034" gradientUnits="userSpaceOnUse">
<stop stop-color="#ACBDDE"/>
<stop offset="1" stop-color="#2E405C"/>
</linearGradient>
<linearGradient id="paint14_linear_1310_14321" x1="364.531" y1="396.193" x2="316.082" y2="348.408" gradientUnits="userSpaceOnUse">
<stop stop-color="white"/>
<stop offset="1" stop-color="#AEBDDF"/>
</linearGradient>
<linearGradient id="paint15_linear_1310_14321" x1="285.796" y1="351.013" x2="294.756" y2="378.225" gradientUnits="userSpaceOnUse">
<stop stop-color="white"/>
<stop offset="1" stop-color="#AEBDDF"/>
</linearGradient>
<linearGradient id="paint16_linear_1310_14321" x1="337.694" y1="313.055" x2="262.918" y2="370.354" gradientUnits="userSpaceOnUse">
<stop stop-color="white"/>
<stop offset="1" stop-color="#AEBDDF"/>
</linearGradient>
<linearGradient id="paint17_linear_1310_14321" x1="342.442" y1="284.921" x2="338.46" y2="324.3" gradientUnits="userSpaceOnUse">
<stop stop-color="white"/>
<stop offset="1" stop-color="#AEBDDF"/>
</linearGradient>
<linearGradient id="paint18_linear_1310_14321" x1="378.578" y1="251.115" x2="317.911" y2="362.572" gradientUnits="userSpaceOnUse">
<stop stop-color="white"/>
<stop offset="1" stop-color="#AEBDDF"/>
</linearGradient>
<linearGradient id="paint19_linear_1310_14321" x1="275.034" y1="349.26" x2="296.861" y2="312.536" gradientUnits="userSpaceOnUse">
<stop stop-color="white"/>
<stop offset="1" stop-color="#AEBDDF"/>
</linearGradient>
<linearGradient id="paint20_linear_1310_14321" x1="213.418" y1="-0.153994" x2="213.418" y2="358.064" gradientUnits="userSpaceOnUse">
<stop stop-color="#01F1BB"/>
<stop offset="1" stop-color="#2288FF"/>
</linearGradient>
<linearGradient id="paint21_linear_1310_14321" x1="188.88" y1="101.352" x2="451.405" y2="538.894" gradientUnits="userSpaceOnUse">
<stop stop-color="white"/>
<stop offset="1" stop-color="#AEBDDF"/>
</linearGradient>
<linearGradient id="paint22_linear_1310_14321" x1="359.657" y1="181.301" x2="95.8467" y2="181.301" gradientUnits="userSpaceOnUse">
<stop stop-color="white"/>
<stop offset="1" stop-color="#AEBDDF"/>
</linearGradient>
<linearGradient id="paint23_linear_1310_14321" x1="359.657" y1="191.892" x2="95.8467" y2="191.892" gradientUnits="userSpaceOnUse">
<stop stop-color="white"/>
<stop offset="1" stop-color="#AEBDDF"/>
</linearGradient>
<linearGradient id="paint24_linear_1310_14321" x1="359.657" y1="198.662" x2="95.8467" y2="198.662" gradientUnits="userSpaceOnUse">
<stop stop-color="white"/>
<stop offset="1" stop-color="#AEBDDF"/>
</linearGradient>
<linearGradient id="paint25_linear_1310_14321" x1="265.038" y1="57.1269" x2="527.563" y2="494.669" gradientUnits="userSpaceOnUse">
<stop stop-color="white"/>
<stop offset="1" stop-color="#AEBDDF"/>
</linearGradient>
<linearGradient id="paint26_linear_1310_14321" x1="341.074" y1="112.804" x2="269.671" y2="112.804" gradientUnits="userSpaceOnUse">
<stop stop-color="white"/>
<stop offset="1" stop-color="#AEBDDF"/>
</linearGradient>
<linearGradient id="paint27_linear_1310_14321" x1="341.074" y1="118.937" x2="269.671" y2="118.937" gradientUnits="userSpaceOnUse">
<stop stop-color="white"/>
<stop offset="1" stop-color="#AEBDDF"/>
</linearGradient>
<linearGradient id="paint28_linear_1310_14321" x1="240.159" y1="72.0544" x2="502.684" y2="509.597" gradientUnits="userSpaceOnUse">
<stop stop-color="white"/>
<stop offset="1" stop-color="#AEBDDF"/>
</linearGradient>
<linearGradient id="paint29_linear_1310_14321" x1="108.644" y1="47.3318" x2="108.644" y2="225.009" gradientUnits="userSpaceOnUse">
<stop stop-color="#79D985"/>
<stop offset="1" stop-color="#027A71"/>
</linearGradient>
<linearGradient id="paint30_linear_1310_14321" x1="111.605" y1="118.107" x2="103.834" y2="106.36" gradientUnits="userSpaceOnUse">
<stop stop-color="#E9EDF6"/>
<stop offset="1" stop-color="#AEBDDF"/>
</linearGradient>
<linearGradient id="paint31_linear_1310_14321" x1="109.363" y1="124.053" x2="101.592" y2="112.306" gradientUnits="userSpaceOnUse">
<stop stop-color="#E9EDF6"/>
<stop offset="1" stop-color="#AEBDDF"/>
</linearGradient>
<linearGradient id="paint32_linear_1310_14321" x1="102.907" y1="126.971" x2="97.495" y2="118.791" gradientUnits="userSpaceOnUse">
<stop stop-color="#E9EDF6"/>
<stop offset="1" stop-color="#AEBDDF"/>
</linearGradient>
<linearGradient id="paint33_linear_1310_14321" x1="258.782" y1="29.5798" x2="258.782" y2="172.396" gradientUnits="userSpaceOnUse">
<stop stop-color="white"/>
<stop offset="1" stop-color="#AEBDDF"/>
</linearGradient>
<linearGradient id="paint34_linear_1310_14321" x1="242.731" y1="89.2689" x2="242.731" y2="176.47" gradientUnits="userSpaceOnUse">
<stop stop-color="#FFEFA4"/>
<stop offset="1" stop-color="#FE8F01"/>
</linearGradient>
<linearGradient id="paint35_linear_1310_14321" x1="226.681" y1="29.5803" x2="226.681" y2="172.397" gradientUnits="userSpaceOnUse">
<stop stop-color="white"/>
<stop offset="1" stop-color="#AEBDDF"/>
</linearGradient>
<linearGradient id="paint36_linear_1310_14321" x1="210.623" y1="29.5799" x2="210.623" y2="172.397" gradientUnits="userSpaceOnUse">
<stop stop-color="white"/>
<stop offset="1" stop-color="#AEBDDF"/>
</linearGradient>
<linearGradient id="paint37_linear_1310_14321" x1="194.573" y1="29.5796" x2="194.573" y2="172.396" gradientUnits="userSpaceOnUse">
<stop stop-color="white"/>
<stop offset="1" stop-color="#AEBDDF"/>
</linearGradient>
<linearGradient id="paint38_linear_1310_14321" x1="331.295" y1="134.597" x2="306.192" y2="134.597" gradientUnits="userSpaceOnUse">
<stop stop-color="#DFE5F2"/>
<stop offset="1" stop-color="#AEBDDF"/>
</linearGradient>
<linearGradient id="paint39_linear_1310_14321" x1="331.301" y1="128.362" x2="313.251" y2="128.362" gradientUnits="userSpaceOnUse">
<stop stop-color="#FFCC69"/>
<stop offset="1" stop-color="#FE8F01"/>
</linearGradient>
<linearGradient id="paint40_linear_1310_14321" x1="309.767" y1="163.436" x2="309.767" y2="206.53" gradientUnits="userSpaceOnUse">
<stop stop-color="#FFEFA4"/>
<stop offset="1" stop-color="#FE8F01"/>
</linearGradient>
<linearGradient id="paint41_linear_1310_14321" x1="120.166" y1="87.1576" x2="120.166" y2="80.9035" gradientUnits="userSpaceOnUse">
<stop stop-color="#FFEFA4"/>
<stop offset="1" stop-color="#FE8F01"/>
</linearGradient>
<linearGradient id="paint42_linear_1310_14321" x1="84.8183" y1="73.5346" x2="138.688" y2="73.5346" gradientUnits="userSpaceOnUse">
<stop stop-color="#ACBDDE"/>
<stop offset="1" stop-color="#2E405C"/>
</linearGradient>
<linearGradient id="paint43_linear_1310_14321" x1="119.68" y1="55.7647" x2="120.315" y2="66.9451" gradientUnits="userSpaceOnUse">
<stop stop-color="#ACBDDE"/>
<stop offset="1" stop-color="#2E405C"/>
</linearGradient>
<linearGradient id="paint44_linear_1310_14321" x1="118.627" y1="5.12385" x2="121.878" y2="62.4567" gradientUnits="userSpaceOnUse">
<stop stop-color="white"/>
<stop offset="1" stop-color="#AEBDDF"/>
</linearGradient>
<linearGradient id="paint45_linear_1310_14321" x1="312.975" y1="87.3436" x2="312.975" y2="80.5253" gradientUnits="userSpaceOnUse">
<stop stop-color="#FFEFA4"/>
<stop offset="1" stop-color="#FE8F01"/>
</linearGradient>
<linearGradient id="paint46_linear_1310_14321" x1="292.524" y1="73.5346" x2="348.685" y2="73.5346" gradientUnits="userSpaceOnUse">
<stop stop-color="#ACBDDE"/>
<stop offset="1" stop-color="#2E405C"/>
</linearGradient>
<linearGradient id="paint47_linear_1310_14321" x1="312.493" y1="55.7642" x2="313.129" y2="66.9446" gradientUnits="userSpaceOnUse">
<stop stop-color="#ACBDDE"/>
<stop offset="1" stop-color="#2E405C"/>
</linearGradient>
<linearGradient id="paint48_linear_1310_14321" x1="311.445" y1="5.12385" x2="314.695" y2="62.4567" gradientUnits="userSpaceOnUse">
<stop stop-color="white"/>
<stop offset="1" stop-color="#AEBDDF"/>
</linearGradient>
<linearGradient id="paint49_linear_1310_14321" x1="174.606" y1="250.225" x2="293.845" y2="287.993" gradientUnits="userSpaceOnUse">
<stop stop-color="#FFD2BB"/>
<stop offset="1" stop-color="#FF6B5A"/>
</linearGradient>
<linearGradient id="paint50_linear_1310_14321" x1="172.361" y1="292.074" x2="292.739" y2="258.13" gradientUnits="userSpaceOnUse">
<stop stop-color="#FFD2BB"/>
<stop offset="1" stop-color="#FF6B5A"/>
</linearGradient>
<linearGradient id="paint51_linear_1310_14321" x1="246.468" y1="212.941" x2="246.468" y2="357.769" gradientUnits="userSpaceOnUse">
<stop stop-color="white"/>
<stop offset="1" stop-color="#AEBDDF"/>
</linearGradient>
<linearGradient id="paint52_linear_1310_14321" x1="195.957" y1="228.312" x2="196.329" y2="278.89" gradientUnits="userSpaceOnUse">
<stop stop-color="#ACBDDE"/>
<stop offset="1" stop-color="#2E405C"/>
</linearGradient>
<linearGradient id="paint53_linear_1310_14321" x1="176.43" y1="215.805" x2="176.43" y2="266.679" gradientUnits="userSpaceOnUse">
<stop stop-color="#ACBDDE"/>
<stop offset="1" stop-color="#2E405C"/>
</linearGradient>
<linearGradient id="paint54_linear_1310_14321" x1="194.115" y1="234.401" x2="194.115" y2="264.912" gradientUnits="userSpaceOnUse">
<stop stop-color="#ACBDDE"/>
<stop offset="1" stop-color="#2E405C"/>
</linearGradient>
<linearGradient id="paint55_linear_1310_14321" x1="173.314" y1="227.76" x2="173.314" y2="267.294" gradientUnits="userSpaceOnUse">
<stop stop-color="white"/>
<stop offset="1" stop-color="#AEBDDF"/>
</linearGradient>
<linearGradient id="paint56_linear_1310_14321" x1="169.114" y1="217.184" x2="169.114" y2="252.742" gradientUnits="userSpaceOnUse">
<stop stop-color="white"/>
<stop offset="1" stop-color="#AEBDDF"/>
</linearGradient>
<linearGradient id="paint57_linear_1310_14321" x1="164.918" y1="234.89" x2="164.918" y2="274.423" gradientUnits="userSpaceOnUse">
<stop stop-color="white"/>
<stop offset="1" stop-color="#AEBDDF"/>
</linearGradient>
<linearGradient id="paint58_linear_1310_14321" x1="158.739" y1="245.806" x2="158.739" y2="333.573" gradientUnits="userSpaceOnUse">
<stop stop-color="#ACBDDE"/>
<stop offset="1" stop-color="#2E405C"/>
</linearGradient>
<linearGradient id="paint59_linear_1310_14321" x1="156.778" y1="241.839" x2="156.778" y2="285.272" gradientUnits="userSpaceOnUse">
<stop stop-color="#ACBDDE"/>
<stop offset="1" stop-color="#2E405C"/>
</linearGradient>
<linearGradient id="paint60_linear_1310_14321" x1="206.85" y1="236.663" x2="171.148" y2="319.223" gradientUnits="userSpaceOnUse">
<stop stop-color="#ACBDDE"/>
<stop offset="1" stop-color="#2E405C"/>
</linearGradient>
<linearGradient id="paint61_linear_1310_14321" x1="226.883" y1="175.084" x2="224.258" y2="238.5" gradientUnits="userSpaceOnUse">
<stop stop-color="#FFD2BB"/>
<stop offset="1" stop-color="#FF6B5A"/>
</linearGradient>
<linearGradient id="paint62_linear_1310_14321" x1="227.754" y1="126.662" x2="227.754" y2="218.223" gradientUnits="userSpaceOnUse">
<stop stop-color="#ACBDDE"/>
<stop offset="1" stop-color="#2E405C"/>
</linearGradient>
<linearGradient id="paint63_linear_1310_14321" x1="289.014" y1="435" x2="227.833" y2="435" gradientUnits="userSpaceOnUse">
<stop stop-color="white" stop-opacity="0"/>
<stop offset="1" stop-color="#AEBDDF"/>
</linearGradient>
<linearGradient id="paint64_linear_1310_14321" x1="240.849" y1="440.024" x2="199.368" y2="440.024" gradientUnits="userSpaceOnUse">
<stop stop-color="white" stop-opacity="0"/>
<stop offset="1" stop-color="#AEBDDF"/>
</linearGradient>
<linearGradient id="paint65_linear_1310_14321" x1="230.213" y1="437.315" x2="230.213" y2="405.71" gradientUnits="userSpaceOnUse">
<stop stop-color="white"/>
<stop offset="1" stop-color="#AEBDDF"/>
</linearGradient>
<linearGradient id="paint66_linear_1310_14321" x1="239.262" y1="471.622" x2="239.262" y2="321.021" gradientUnits="userSpaceOnUse">
<stop stop-color="#ACBDDE"/>
<stop offset="1" stop-color="#2E405C"/>
</linearGradient>
<linearGradient id="paint67_linear_1310_14321" x1="225.364" y1="373.062" x2="230.157" y2="429.76" gradientUnits="userSpaceOnUse">
<stop stop-color="white"/>
<stop offset="1" stop-color="#AEBDDF"/>
</linearGradient>
<linearGradient id="paint68_linear_1310_14321" x1="190.118" y1="443.514" x2="190.118" y2="410.538" gradientUnits="userSpaceOnUse">
<stop stop-color="white"/>
<stop offset="1" stop-color="#AEBDDF"/>
</linearGradient>
<linearGradient id="paint69_linear_1310_14321" x1="217.274" y1="469.191" x2="217.274" y2="317.898" gradientUnits="userSpaceOnUse">
<stop stop-color="#ACBDDE"/>
<stop offset="1" stop-color="#2E405C"/>
</linearGradient>
<linearGradient id="paint70_linear_1310_14321" x1="191.736" y1="420.85" x2="189.977" y2="440.204" gradientUnits="userSpaceOnUse">
<stop stop-color="white"/>
<stop offset="1" stop-color="#AEBDDF"/>
</linearGradient>
<linearGradient id="paint71_linear_1310_14321" x1="226.111" y1="209.05" x2="227.237" y2="248.15" gradientUnits="userSpaceOnUse">
<stop stop-color="#ACBDDE"/>
<stop offset="1" stop-color="#2E405C"/>
</linearGradient>
<linearGradient id="paint72_linear_1310_14321" x1="226.952" y1="212.94" x2="226.952" y2="357.769" gradientUnits="userSpaceOnUse">
<stop stop-color="white"/>
<stop offset="1" stop-color="#AEBDDF"/>
</linearGradient>
<linearGradient id="paint73_linear_1310_14321" x1="118.118" y1="270.485" x2="242.566" y2="282.991" gradientUnits="userSpaceOnUse">
<stop stop-color="#FFD2BB"/>
<stop offset="1" stop-color="#FF6B5A"/>
</linearGradient>
<linearGradient id="paint74_linear_1310_14321" x1="202.071" y1="212.94" x2="202.071" y2="357.769" gradientUnits="userSpaceOnUse">
<stop stop-color="white"/>
<stop offset="1" stop-color="#AEBDDF"/>
</linearGradient>
<linearGradient id="paint75_linear_1310_14321" x1="120.612" y1="261.325" x2="240.905" y2="295.595" gradientUnits="userSpaceOnUse">
<stop stop-color="#FFD2BB"/>
<stop offset="1" stop-color="#FF6B5A"/>
</linearGradient>
<linearGradient id="paint76_linear_1310_14321" x1="95.0462" y1="419.002" x2="95.0462" y2="383.208" gradientUnits="userSpaceOnUse">
<stop stop-color="white"/>
<stop offset="1" stop-color="#AEBDDF"/>
</linearGradient>
<linearGradient id="paint77_linear_1310_14321" x1="-nan" y1="-nan" x2="-nan" y2="-nan" gradientUnits="userSpaceOnUse">
<stop stop-color="#5D6E8C"/>
<stop offset="1" stop-color="#2E405C"/>
</linearGradient>
<linearGradient id="paint78_linear_1310_14321" x1="69.7296" y1="407.914" x2="69.7296" y2="353.451" gradientUnits="userSpaceOnUse">
<stop stop-color="#5D6E8C"/>
<stop offset="1" stop-color="#2E405C"/>
</linearGradient>
<linearGradient id="paint79_linear_1310_14321" x1="120.364" y1="407.914" x2="120.364" y2="353.451" gradientUnits="userSpaceOnUse">
<stop stop-color="#5D6E8C"/>
<stop offset="1" stop-color="#2E405C"/>
</linearGradient>
<linearGradient id="paint80_linear_1310_14321" x1="34.2351" y1="364.257" x2="133.565" y2="364.257" gradientUnits="userSpaceOnUse">
<stop stop-color="white"/>
<stop offset="1" stop-color="#AEBDDF"/>
</linearGradient>
<linearGradient id="paint81_linear_1310_14321" x1="95.0435" y1="364.795" x2="95.0435" y2="294.073" gradientUnits="userSpaceOnUse">
<stop stop-color="white"/>
<stop offset="1" stop-color="#AEBDDF"/>
</linearGradient>
<linearGradient id="paint82_linear_1310_14321" x1="48.2049" y1="345.987" x2="-12.4359" y2="309.982" gradientUnits="userSpaceOnUse">
<stop stop-color="#FFD2BB"/>
<stop offset="1" stop-color="#FF6B5A"/>
</linearGradient>
<linearGradient id="paint83_linear_1310_14321" x1="46.76" y1="444.936" x2="46.76" y2="210.065" gradientUnits="userSpaceOnUse">
<stop stop-color="#ACBDDE"/>
<stop offset="1" stop-color="#2E405C"/>
</linearGradient>
<linearGradient id="paint84_linear_1310_14321" x1="35.8142" y1="308.597" x2="2.52748" y2="361.298" gradientUnits="userSpaceOnUse">
<stop stop-color="white"/>
<stop offset="1" stop-color="#AEBDDF"/>
</linearGradient>
<linearGradient id="paint85_linear_1310_14321" x1="21.3823" y1="358.888" x2="-14.3436" y2="303.236" gradientUnits="userSpaceOnUse">
<stop stop-color="#ACBDDE"/>
<stop offset="1" stop-color="#2E405C"/>
</linearGradient>
<linearGradient id="paint86_linear_1310_14321" x1="93.0293" y1="116.317" x2="55.8574" y2="139.271" gradientUnits="userSpaceOnUse">
<stop stop-color="#FFD2BB"/>
<stop offset="1" stop-color="#FF6B5A"/>
</linearGradient>
<linearGradient id="paint87_linear_1310_14321" x1="77.5107" y1="48.5637" x2="77.5107" y2="144.538" gradientUnits="userSpaceOnUse">
<stop stop-color="#ACBDDE"/>
<stop offset="1" stop-color="#2E405C"/>
</linearGradient>
<linearGradient id="paint88_linear_1310_14321" x1="125.761" y1="333.901" x2="58.3911" y2="346.243" gradientUnits="userSpaceOnUse">
<stop stop-color="#FFD2BB"/>
<stop offset="1" stop-color="#FF6B5A"/>
</linearGradient>
<linearGradient id="paint89_linear_1310_14321" x1="81.7061" y1="369.466" x2="81.7061" y2="212.459" gradientUnits="userSpaceOnUse">
<stop stop-color="#ACBDDE"/>
<stop offset="1" stop-color="#2E405C"/>
</linearGradient>
<linearGradient id="paint90_linear_1310_14321" x1="98.4515" y1="360.561" x2="98.4515" y2="343.713" gradientUnits="userSpaceOnUse">
<stop stop-color="white"/>
<stop offset="1" stop-color="#AEBDDF"/>
</linearGradient>
<linearGradient id="paint91_linear_1310_14321" x1="114.575" y1="351.636" x2="44.3305" y2="369.665" gradientUnits="userSpaceOnUse">
<stop stop-color="#ACBDDE"/>
<stop offset="1" stop-color="#2E405C"/>
</linearGradient>
<linearGradient id="paint92_linear_1310_14321" x1="149.361" y1="175.947" x2="12.4341" y2="175.947" gradientUnits="userSpaceOnUse">
<stop stop-color="#FFEFA4"/>
<stop offset="1" stop-color="#FE8F01"/>
</linearGradient>
<linearGradient id="paint93_linear_1310_14321" x1="60.3758" y1="48.5634" x2="60.3758" y2="144.538" gradientUnits="userSpaceOnUse">
<stop stop-color="#ACBDDE"/>
<stop offset="1" stop-color="#2E405C"/>
</linearGradient>
<linearGradient id="paint94_linear_1310_14321" x1="141.291" y1="77.8797" x2="141.291" y2="209.032" gradientUnits="userSpaceOnUse">
<stop stop-color="#79D985"/>
<stop offset="1" stop-color="#027A71"/>
</linearGradient>
<linearGradient id="paint95_linear_1310_14321" x1="126.852" y1="143.278" x2="140.214" y2="143.278" gradientUnits="userSpaceOnUse">
<stop stop-color="#AEBDDF"/>
<stop offset="1" stop-color="#E9EDF6"/>
</linearGradient>
<linearGradient id="paint96_linear_1310_14321" x1="134.85" y1="152.158" x2="128.908" y2="143.176" gradientUnits="userSpaceOnUse">
<stop stop-color="#E9EDF6"/>
<stop offset="1" stop-color="#AEBDDF"/>
</linearGradient>
<linearGradient id="paint97_linear_1310_14321" x1="130.086" y1="154.313" x2="125.886" y2="147.963" gradientUnits="userSpaceOnUse">
<stop stop-color="#E9EDF6"/>
<stop offset="1" stop-color="#AEBDDF"/>
</linearGradient>
<linearGradient id="paint98_linear_1310_14321" x1="168.27" y1="116.68" x2="67.913" y2="252.89" gradientUnits="userSpaceOnUse">
<stop stop-color="#FFD2BB"/>
<stop offset="1" stop-color="#FF6B5A"/>
</linearGradient>
<linearGradient id="paint99_linear_1310_14321" x1="149.364" y1="186.977" x2="12.4372" y2="186.977" gradientUnits="userSpaceOnUse">
<stop stop-color="#FFEFA4"/>
<stop offset="1" stop-color="#FE8F01"/>
</linearGradient>
<linearGradient id="paint100_linear_1310_14321" x1="149.366" y1="175.533" x2="12.4401" y2="175.533" gradientUnits="userSpaceOnUse">
<stop stop-color="#FFEFA4"/>
<stop offset="1" stop-color="#FE8F01"/>
</linearGradient>
</defs>
</svg>
